<?xml version="1.0" encoding="utf-8"?>
<!-- Generator: Adobe Illustrator 23.0.4, SVG Export Plug-In . SVG Version: 6.00 Build 0)  -->
<svg version="1.1" id="Layer_1" xmlns="http://www.w3.org/2000/svg" xmlns:xlink="http://www.w3.org/1999/xlink" x="0px" y="0px"
	 viewBox="0 0 225 225" style="enable-background:new 0 0 225 225;" xml:space="preserve">
<style type="text/css">
	.st0{fill:#FFFFFF;}
</style>
<path class="st0" d="M77,111.6c0-13.6,0-27.3,0-40.9c0-9.9,4.9-12.8,13.3-7.9c24.3,13.8,48.5,27.7,72.8,41.5c0.9,0.5,1.7,1,2.6,1.5
	c6.6,4.3,6.6,9.5-0.2,13.4c-14.4,8.3-28.9,16.5-43.3,24.7c-10.5,6-21,12.1-31.6,18.1c-1.7,1-3.6,2-5.5,2.3c-4,0.6-6.9-0.8-7.6-5.2
	c-0.3-2.3-0.6-4.6-0.6-6.9C76.9,138.6,76.9,125.1,77,111.6C77,111.6,77,111.6,77,111.6z"/>
</svg>
